<svg xmlns="http://www.w3.org/2000/svg">
  <symbol id="site-logo" preserveAspectRatio="xMidYMid meet" viewBox="0 0 32 32">
    <defs>
      <text id="e1Ztn7UdIo" x="24.54" y="1" font-size="14" font-family="Rubik" font-weight="normal" font-style="normal"
            letter-spacing="0" alignment-baseline="before-edge"
            transform="matrix(1 0 0 1 -8.531250000000004 5.512959116914091)" style="line-height:100%"
            xml:space="preserve"
            dominant-baseline="text-before-edge"><tspan x="24.54" dy="0em" alignment-baseline="before-edge" dominant-baseline="text-before-edge" text-anchor="middle">A</tspan></text>
      <path
        d="M24.42 17.51C22.73 19.19 18.42 23.46 16.73 25.14C16.3 25.56 15.62 25.55 15.19 25.13C13.52 23.44 9.25 19.13 7.57 17.44C7.15 17.01 7.15 16.33 7.57 15.91C9.27 14.23 13.57 9.96 15.27 8.28C15.69 7.86 16.38 7.86 16.8 8.28C18.48 9.98 22.75 14.28 24.43 15.98C24.85 16.4 24.84 17.09 24.42 17.51Z"
        id="b9g5gzEfKn"></path>
      <path
        d="M29.7 16.59C29.95 16.83 29.95 17.22 29.7 17.47C26.96 20.21 19.19 27.99 16.45 30.73C16.2 30.97 15.81 30.97 15.56 30.73C12.82 27.99 5.04 20.21 2.3 17.47C2.06 17.23 2.06 16.83 2.3 16.59C5.04 13.85 12.82 6.07 15.56 3.33C15.81 3.08 16.2 3.08 16.45 3.33C19.19 6.07 26.96 13.85 29.7 16.59Z"
        id="a16YCI00i1"></path>
      <path
        d="M29.7 14.57C29.95 14.81 29.95 15.21 29.7 15.45C26.96 18.19 19.19 25.97 16.45 28.71C16.2 28.96 15.81 28.96 15.56 28.71C12.82 25.97 5.04 18.2 2.3 15.46C2.06 15.21 2.06 14.82 2.3 14.57C5.04 11.83 12.82 4.05 15.56 1.31C15.81 1.07 16.2 1.07 16.45 1.31C19.19 4.05 26.96 11.83 29.7 14.57Z"
        id="f3brQf02GP"></path>
    </defs>
    <g>
      <g>
        <g id="b6HeXrBjBi">
          <use fill="#eeeeee" fill-opacity="1" href="#e1Ztn7UdIo" opacity="1"></use>
        </g>
        <g>
          <use fill="#F64E4D" fill-opacity="0" href="#b9g5gzEfKn" opacity="1"></use>
          <g>
            <use fill-opacity="0" href="#b9g5gzEfKn" opacity="1" stroke="#000000" stroke-opacity="0"
                 stroke-width="1"></use>
          </g>
        </g>
        <g>
          <g></g>
          <use fill="#F64E4D" fill-opacity="0" href="#a16YCI00i1" opacity="1"></use>
          <g>
            <use fill-opacity="0" href="#a16YCI00i1" opacity="1" stroke="#F64E4D" stroke-opacity="1"
                 stroke-width="2"></use>
          </g>
        </g>
        <g>
          <g></g>
          <use fill="#3F3E3D" fill-opacity="0" href="#f3brQf02GP" opacity="1"></use>
          <g>
            <use fill-opacity="0" href="#f3brQf02GP" opacity="1" stroke="#3F3E3D" stroke-opacity="1"
                 stroke-width="2"></use>
          </g>
        </g>
      </g>
    </g>
  </symbol>
  <symbol id="welcome-card" fill="#eeeeee" viewBox="0 0 170 70" aria-labelledby="welcome-title">
    <title id="welcome-title">Hello, This is Alessandro Roic Front End Developer</title>
    <text x="0" y="15">
      Hello,
    </text>
    <text x="0" y="40">
      This is
    </text>
    <text fill="#F64E4D" text-decoration="underline" x="50" y="40">
      Alessandro Roic
    </text>
    <text x="0" y="65">
      Front End Developer
    </text>
  </symbol>
  <symbol id="cv" viewBox="0 0 24 24" fill="none" stroke="currentColor" stroke-width="2" stroke-linecap="round"
          stroke-linejoin="round">
    <title>Curriculum</title>
    <circle cx="12" cy="7" r="5"/>
    <path
      d="M17 14h.352a3 3 0 0 1 2.976 2.628l.391 3.124A2 2 0 0 1 18.734 22H5.266a2 2 0 0 1-1.985-2.248l.39-3.124A3 3 0 0 1 6.649 14H7"/>
  </symbol>
  <symbol id="email" viewBox="0 0 24 24" fill="none" stroke="currentColor" stroke-width="2" stroke-linecap="round"
          stroke-linejoin="round">
    <title>email</title>
    <circle cx="12" cy="12" r="4"/>
    <path d="M22 12c0-5.523-4.477-10-10-10S2 6.477 2 12s4.477 10 10 10c2.252 0 4.33-.744 6.001-2"/>
    <path d="M16 8v4c0 1 .6 3 3 3s3-2 3-3"/>
  </symbol>
  <symbol id="github" viewBox="0 0 24 24">
    <title>github</title>
    <path fill="currentColor"
          d="M16.24 22a1 1 0 0 1-1-1v-2.6a2.15 2.15 0 0 0-.54-1.66a1 1 0 0 1 .61-1.67C17.75 14.78 20 14 20 9.77a4 4 0 0 0-.67-2.22a2.75 2.75 0 0 1-.41-2.06a3.71 3.71 0 0 0 0-1.41a7.65 7.65 0 0 0-2.09 1.09a1 1 0 0 1-.84.15a10.15 10.15 0 0 0-5.52 0a1 1 0 0 1-.84-.15a7.4 7.4 0 0 0-2.11-1.09a3.52 3.52 0 0 0 0 1.41a2.84 2.84 0 0 1-.43 2.08a4.07 4.07 0 0 0-.67 2.23c0 3.89 1.88 4.93 4.7 5.29a1 1 0 0 1 .82.66a1 1 0 0 1-.21 1a2.06 2.06 0 0 0-.55 1.56V21a1 1 0 0 1-2 0v-.57a6 6 0 0 1-5.27-2.09a3.9 3.9 0 0 0-1.16-.88a1 1 0 1 1 .5-1.94a4.93 4.93 0 0 1 2 1.36c1 1 2 1.88 3.9 1.52a3.89 3.89 0 0 1 .23-1.58c-2.06-.52-5-2-5-7a6 6 0 0 1 1-3.33a.85.85 0 0 0 .13-.62a5.69 5.69 0 0 1 .33-3.21a1 1 0 0 1 .63-.57c.34-.1 1.56-.3 3.87 1.2a12.16 12.16 0 0 1 5.69 0c2.31-1.5 3.53-1.31 3.86-1.2a1 1 0 0 1 .63.57a5.71 5.71 0 0 1 .33 3.22a.75.75 0 0 0 .11.57a6 6 0 0 1 1 3.34c0 5.07-2.92 6.54-5 7a4.28 4.28 0 0 1 .22 1.67V21a1 1 0 0 1-.94 1z"/>
  </symbol>
  <symbol id="linkedin" preserveAspectRatio="xMidYMid meet" viewBox="0 0 24 24">
    <title>linkedin</title>
    <g fill="none" stroke="currentColor" stroke-width="2" stroke-linecap="round" stroke-linejoin="round">
      <path d="M16 8a6 6 0 0 1 6 6v7h-4v-7a2 2 0 0 0-2-2a2 2 0 0 0-2 2v7h-4v-7a6 6 0 0 1 6-6z"/>
      <path d="M2 9h4v12H2z"/>
      <circle cx="4" cy="4" r="2"/>
    </g>
  </symbol>
  <symbol id="chevron-left" viewBox="0 0 24 24" fill="none" stroke="currentColor" stroke-width="3"
          stroke-linecap="round"
          stroke-linejoin="round">
    <path d="M15 4l-8 8 8 8"/>
  </symbol>
  <symbol id="chevron-right" viewBox="0 0 24 24" fill="none" stroke="currentColor" stroke-width="3"
          stroke-linecap="round"
          stroke-linejoin="round">
    <path d="M8 4l8 8-8 8"/>
  </symbol>
  <symbol id="chevron-up" viewBox="0 0 24 24" fill="none" stroke="currentColor" stroke-width="2" stroke-linecap="round"
          stroke-linejoin="round">
    <path d="M4 15l8-8 8 8"/>
  </symbol>
  <symbol id="arrow-up" viewBox="0 0 24 24" fill="none" stroke="currentColor" stroke-width="1.5" stroke-linecap="round"
          stroke-linejoin="round">
    <rect x="3" y="3" width="18" height="18" rx="3" fill="#3F3E3D"/>
    <path d="M8 13.5l4-4 4 4" stroke="#eeeeee"/>
  </symbol>
  <symbol id="menu-left" viewBox="0 0 24 24" fill="none" stroke="currentColor" stroke-width="2"
          stroke-linecap="round" stroke-linejoin="round">
    <path d="M3 6h18M3 12h10M3 18h15"/>
  </symbol>
  <symbol id="menu-center" viewBox="0 0 24 24" fill="none" stroke="currentColor" stroke-width="2"
          stroke-linecap="round" stroke-linejoin="round">
    <path d="M3 6h18M7 12h10M5 18h14"/>
  </symbol>
  <symbol id="menu-right" viewBox="0 0 24 24" fill="none" stroke="currentColor" stroke-width="2"
          stroke-linecap="round" stroke-linejoin="round">
    <path d="M3 6h18m-10 6h10M6 18h15"/>
  </symbol>
</svg>
